<svg width="16" height="14" viewBox="0 0 16 14" fill="none" xmlns="http://www.w3.org/2000/svg">
<path d="M12.9633 1.88639L12.9633 1.88633L12.9561 1.89306C12.9318 1.91584 12.9128 1.9365 12.9001 1.95091L12.885 1.96834L12.8779 1.97676L12.8778 1.97671L12.8714 1.9845L7.44666 8.56712L4.40253 5.66933C4.23242 5.49768 4.02982 5.36136 3.80724 5.26691C3.58111 5.17095 3.33805 5.11975 3.09236 5.11562C2.84666 5.11149 2.60202 5.15449 2.37273 5.24269C2.14341 5.33091 1.93318 5.46294 1.7553 5.63234C1.57736 5.80181 1.43536 6.00534 1.33938 6.23166C1.24336 6.45806 1.19579 6.70167 1.20035 6.94763C1.2049 7.1936 1.26146 7.43527 1.36566 7.658C1.46819 7.87714 1.61436 8.07271 1.79418 8.23433L6.23254 12.4613C6.41061 12.631 6.62112 12.7631 6.85075 12.8513C7.08033 12.9396 7.3253 12.9825 7.57128 12.9781C7.81726 12.9738 8.06056 12.9223 8.28683 12.8259C8.51315 12.7295 8.71872 12.5898 8.89039 12.4137L8.90595 12.3978L8.92028 12.3807L15.6117 4.41074C15.9314 4.07026 16.1075 3.62023 16.0945 3.15163C16.0813 2.67565 15.8744 2.22946 15.5274 1.90514C15.1812 1.58168 14.7224 1.40346 14.249 1.40005C13.7756 1.39664 13.3143 1.56821 12.9633 1.88639Z" fill="#2B3467" stroke="#F8FBFF" stroke-width="1.2"/>
</svg>
